<?xml version="1.0" encoding="UTF-8" standalone="no"?><!DOCTYPE svg PUBLIC "-//W3C//DTD SVG 1.1//EN" "http://www.w3.org/Graphics/SVG/1.1/DTD/svg11.dtd"><svg width="100%" height="100%" viewBox="0 0 5153 2000" version="1.1" xmlns="http://www.w3.org/2000/svg" xmlns:xlink="http://www.w3.org/1999/xlink" xml:space="preserve" xmlns:serif="http://www.serif.com/" style="fill-rule:evenodd;clip-rule:evenodd;stroke-linejoin:round;stroke-miterlimit:2;"><rect id="COLOUREXT" x="0.922" y="0" width="5151.157" height="2000" style="fill:none;"/><g><path d="M1742.49,1517.408c0.897,1.718 -0.374,3.81 -2.316,3.81l-279.126,0c-4.034,0 -7.695,-2.241 -9.563,-5.828l-56.557,-109.528c-2.092,-4.034 -6.276,-6.5 -10.759,-6.5l-466.803,0c-3.437,0 -5.678,-3.661 -4.109,-6.724l99.816,-188.948c2.54,-4.782 7.471,-7.77 12.776,-7.77l261.792,0c2.764,0 4.557,-2.988 3.287,-5.454l-149.425,-289.436c-8.144,-15.69 -18.529,-30.109 -30.856,-42.81l-308.263,-317.378c-1.121,-1.195 -2.466,-2.167 -3.885,-2.914c-18.305,-9.713 -33.322,-0.971 -51.327,-17.483c-2.615,-2.391 -6.649,-2.466 -9.339,-0.149c-103.551,91.224 -231.982,203.815 -385.292,337.775c-17.259,15.092 -23.31,35.713 -18.006,61.862c0.448,2.316 1.345,4.557 2.615,6.575c7.322,11.431 38.85,63.057 94.661,154.804c29.063,47.741 67.017,86.965 113.936,117.747c6.126,4.034 3.81,13.523 -3.511,14.27c-3.362,0.299 -7.92,0.224 -13.672,-0.299c-45.126,-3.885 -102.879,-9.937 -173.258,-18.23c-35.713,-4.184 -62.46,-8.965 -80.316,-14.27c-68.81,-20.546 -173.93,-139.712 -145.166,-217.338c11.805,-31.977 32.799,-48.488 59.919,-67.241c3.661,-2.466 3.362,-7.994 -0.523,-10.086c-26.224,-13.897 -23.908,-50.431 0.747,-63.431c2.914,-1.569 8.218,-4.034 15.839,-7.546c2.839,-1.345 4.856,-4.109 5.155,-7.322l7.994,-78.149c0.299,-2.988 -0.598,-5.977 -2.466,-8.293c-3.287,-4.856 -9.937,-9.414 -12.626,-14.793c-16.885,-34.144 8.891,-65.971 45.126,-59.471c6.201,1.121 12.552,-0.822 17.034,-5.155c61.414,-59.172 113.638,-109.304 156.597,-150.396c12.328,-11.805 7.172,-31.006 21.069,-45.873c22.862,-24.282 81.362,-81.586 175.574,-172.063c5.603,-5.305 22.19,-10.46 49.833,-15.316c4.259,-0.747 8.293,-2.316 11.879,-4.632l64.327,-40.718c4.856,-3.063 8.443,-7.695 10.236,-13.075c7.994,-23.908 27.121,-38.85 57.304,-44.827c39.299,-7.845 74.115,7.397 88.609,44.379c6.724,17.109 7.77,33.396 3.213,48.787c-1.195,3.96 -0.224,8.293 2.615,11.431l142.327,156.149c2.764,3.063 6.276,5.379 10.161,6.724c18.155,6.425 29.96,12.477 44.977,27.27c41.69,41.017 101.982,99.89 180.804,176.545c7.322,7.172 11.954,16.736 13.075,26.896c1.569,13.822 5.902,27.644 13.149,41.54c129.178,246.924 272.7,521.194 430.717,822.882m-885.79,-1296.708c0,-12.626 -10.236,-22.862 -22.862,-22.862c-12.626,0 -22.862,10.236 -22.862,22.862c0,12.626 10.236,22.862 22.862,22.862c12.626,0 22.862,-10.236 22.862,-22.862m234.149,337.625c0.299,-1.195 0.075,-2.466 -0.747,-3.437l-56.333,-66.718c-0.822,-0.971 -1.494,-2.092 -1.943,-3.362l-13.523,-38.327c-0.598,-1.793 -1.569,-3.511 -2.839,-5.006l-129.028,-152.862c-3.287,-3.885 -9.19,-4.109 -12.776,-0.448c-5.155,5.379 -7.92,13.672 -8.218,24.879c-0.672,21.741 -9.937,37.281 -27.868,46.621c-6.052,3.138 -6.5,11.58 -0.822,15.316l58.35,38.552c3.362,2.316 5.379,6.126 5.305,10.236c-0.448,13.523 3.81,23.236 12.701,29.138c93.465,61.488 149.5,98.023 168.252,109.753c4.856,3.063 7.994,1.569 9.488,-4.333m-440.205,-201.35c-0.747,-0.672 -1.943,-0.598 -2.69,0.075l-161.976,142.103c-0.822,0.672 -1.718,1.195 -2.69,1.569l-27.046,9.563c-1.718,0.598 -3.287,1.569 -4.632,2.764l-162.948,155.999c-1.718,1.644 -3.138,3.586 -4.184,5.753c-7.247,14.419 -2.54,31.827 -18.977,42.138c-8.368,5.305 -14.27,9.862 -17.782,13.523c-1.644,1.793 -2.69,4.034 -3.063,6.5l-8.592,68.063c-0.448,3.287 2.839,5.753 5.902,4.483c9.19,-3.81 17.557,-5.603 25.103,-5.305c1.569,0.075 3.063,-0.598 4.109,-1.793l381.033,-443.568c0.149,-0.149 0.149,-0.374 0,-0.523l-1.569,-1.345m-397.321,329.482c0,-8.293 -6.724,-15.017 -15.017,-15.017c-8.293,0 -15.017,6.724 -15.017,15.017c0,8.293 6.724,15.017 15.017,15.017c8.293,0 15.017,-6.724 15.017,-15.017m-36.609,412.861c0,-0.075 -5.305,-6.948 -15.988,-20.621c-28.615,-36.833 -38.178,-78.074 -28.54,-123.873c0.224,-1.046 -0.374,-2.167 -1.42,-2.54c-0.971,-0.448 -2.167,0 -2.69,0.971c-30.109,54.988 2.615,112.816 45.276,148.752c1.868,1.569 4.483,-0.523 3.362,-2.69Z" style="fill:#f57e25;fill-rule:nonzero;"/><path d="M892.935,721.571l173.109,178.264c0.672,0.747 0.897,1.868 0.374,2.839l-309.16,616.9c-0.374,0.822 -1.27,1.345 -2.167,1.345l-283.907,0c-1.868,0 -3.063,-1.943 -2.167,-3.586l419.958,-795.239c0.747,-1.494 2.764,-1.718 3.96,-0.523Z" style="fill:#333;fill-rule:nonzero;"/></g><g><path d="M2369.58,1294.507l-414.257,-300.525l-180.767,0l0,527.236l203.363,0l0,-305.797l421.789,305.797l173.235,0l0,-527.236l-203.363,0l0,300.525Z" style="fill:#353332;fill-rule:nonzero;"/><path d="M2627.172,1363.047c0,108.46 50.464,158.171 158.171,158.171l489.576,0c107.707,0 158.171,-49.711 158.171,-158.171l0,-141.601l-408.231,0l0,114.486l204.869,0l0,10.545c0,26.362 -8.285,34.647 -34.647,34.647l-322.367,0c-26.362,0 -34.647,-8.285 -34.647,-34.647l0,-162.69c0,-26.362 8.285,-34.647 34.647,-34.647l314.835,0c26.362,0 34.647,8.285 34.647,34.647l0,10.545l210.894,0l0,-42.179c0,-108.46 -50.464,-158.171 -158.171,-158.171l-489.576,0c-107.707,0 -158.171,49.711 -158.171,158.171l0,210.894Z" style="fill:#353332;fill-rule:nonzero;"/><path d="M3698.215,1314.843l466.981,0l0,-120.511l-466.981,0l0,-51.217l497.108,0l0,-149.133l-708.003,0l0,527.236l715.535,0l0,-149.133l-504.64,0l0,-57.243Z" style="fill:#353332;fill-rule:nonzero;"/><path d="M4458.941,993.982l-210.894,0l0,527.236l677.875,0l0,-173.235l-466.981,0l0,-354.001Z" style="fill:#353332;fill-rule:nonzero;"/></g><g><path d="M555.276,1744.36l126.464,0l0,-53.784l-126.464,0l0,-35.613l141,0l0,-62.142l-219.495,0l0,254.382l223.129,0l0,-62.142l-144.634,0l0,-40.701Z" style="fill:#f57e25;fill-rule:nonzero;"/><path d="M1011.71,1847.203l-106.477,-254.382l-89.034,0l-106.84,254.382l82.856,0l14.173,-39.611l104.297,0l14.173,39.611l86.853,0Zm-152.993,-183.882l32.343,90.124l-65.049,0l32.706,-90.124Z" style="fill:#f57e25;fill-rule:nonzero;"/><path d="M1229.388,1758.169c31.979,-5.451 46.152,-25.075 46.152,-64.686l0,-34.523c0,-46.516 -19.624,-66.139 -66.139,-66.139l-180.975,0l0,254.382l78.495,0l0,-81.766l43.608,0l50.876,81.766l85.036,0l-57.054,-89.034Zm-51.967,-107.567c14.9,0 19.624,4.724 19.624,19.624l0,19.624c0,14.9 -4.724,19.624 -19.624,19.624l-70.5,0l0,-58.871l70.5,0Z" style="fill:#f57e25;fill-rule:nonzero;"/><path d="M1295.164,1592.821l0,69.41l82.129,0l0,184.972l78.495,0l0,-184.972l82.129,0l0,-69.41l-242.753,0Z" style="fill:#f57e25;fill-rule:nonzero;"/><path d="M1735.608,1680.764l-97.392,0l0,-87.943l-78.495,0l0,254.382l78.495,0l0,-96.665l97.392,0l0,96.665l78.495,0l0,-254.382l-78.495,0l0,87.943Z" style="fill:#f57e25;fill-rule:nonzero;"/><path d="M2116.091,1738.545l-47.969,-145.725l-57.781,0l-47.242,145.725l-45.062,-145.725l-85.763,0l90.487,254.382l67.956,0l46.879,-138.82l46.879,138.82l67.956,0l90.487,-254.382l-81.766,0l-45.062,145.725Z" style="fill:#f57e25;fill-rule:nonzero;"/><path d="M2440.973,1847.203c49.786,0 73.407,-22.894 73.407,-73.407l0,-107.567c0,-50.513 -23.621,-73.407 -73.407,-73.407l-118.469,0c-49.786,0 -73.407,22.894 -73.407,73.407l0,107.567c0,50.513 23.621,73.407 73.407,73.407l118.469,0Zm-90.124,-66.503c-17.443,0 -23.258,-5.814 -23.258,-23.258l0,-74.861c0,-17.443 5.814,-23.258 23.258,-23.258l61.778,0c17.08,0 23.258,5.814 23.258,23.258l0,74.861c0,17.443 -6.178,23.258 -23.258,23.258l-61.778,0Z" style="fill:#f57e25;fill-rule:nonzero;"/><path d="M2746.959,1758.169c31.979,-5.451 46.152,-25.075 46.152,-64.686l0,-34.523c0,-46.516 -19.624,-66.139 -66.139,-66.139l-180.975,0l0,254.382l78.495,0l0,-81.766l43.608,0l50.876,81.766l85.036,0l-57.054,-89.034Zm-51.967,-107.567c14.9,0 19.624,4.724 19.624,19.624l0,19.624c0,14.9 -4.724,19.624 -19.624,19.624l-70.5,0l0,-58.871l70.5,0Z" style="fill:#f57e25;fill-rule:nonzero;"/><path d="M2988.985,1715.287l106.84,-122.467l-99.209,0l-90.851,115.926l0,-115.926l-78.495,0l0,254.382l78.495,0l0,-121.377l92.304,121.377l99.209,0l-108.294,-131.915Z" style="fill:#f57e25;fill-rule:nonzero;"/><path d="M3098.733,1789.785c0,39.611 18.17,57.418 57.418,57.418l143.181,0c39.248,0 57.418,-17.807 57.418,-57.418l0,-38.884c0,-39.248 -16.717,-54.147 -57.418,-57.418l-102.48,-9.085c-11.992,-1.09 -15.99,-4.361 -15.99,-15.99l0,-4.724c0,-11.992 3.997,-15.99 15.99,-15.99l63.232,0c11.992,0 15.99,3.997 15.99,15.99l0,7.268l75.588,0l0,-20.714c0,-39.611 -18.17,-57.418 -57.418,-57.418l-134.459,0c-39.248,0 -57.418,17.807 -57.418,57.418l0,34.16c0,38.884 16.717,53.42 57.418,57.418l102.48,9.085c12.719,1.09 15.99,3.997 15.99,15.99l0,9.085c0,11.992 -3.997,15.99 -15.99,15.99l-71.954,0c-11.992,0 -15.99,-3.997 -15.99,-15.99l0,-10.539l-75.588,0l0,24.348Z" style="fill:#f57e25;fill-rule:nonzero;"/><path d="M3596.231,1693.847c-11.992,0 -15.99,-3.997 -15.99,-15.99l0,-14.173c0,-11.992 3.997,-15.99 15.99,-15.99l45.789,0c12.719,0 15.99,3.997 15.99,15.99l0,7.268l72.681,0l0,-20.714c0,-39.611 -18.17,-57.418 -57.418,-57.418l-111.201,0c-39.248,0 -57.418,17.807 -57.418,57.418l0,18.534c0,24.348 7.995,39.974 23.985,46.879c-23.258,4.724 -34.887,21.441 -34.887,50.15l0,23.985c0,39.611 18.17,57.418 57.418,57.418l133.005,0c39.248,0 57.418,-17.807 57.418,-57.418l0,-49.059l36.34,0l0,-46.879l-181.701,0Zm72.681,82.492c0,11.992 -3.997,15.99 -15.99,15.99l-67.593,0c-11.992,0 -15.99,-3.997 -15.99,-15.99l0,-19.624c0,-11.992 3.997,-15.99 15.99,-15.99l83.583,0l0,35.613Z" style="fill:#f57e25;fill-rule:nonzero;"/><path d="M4087.552,1847.203c49.786,0 73.407,-22.894 73.407,-73.407l0,-34.887l-75.588,0l0,19.624c0,17.443 -6.178,23.258 -23.258,23.258l-54.51,0c-17.443,0 -23.258,-5.814 -23.258,-23.258l0,-77.041c0,-17.443 5.814,-23.258 23.258,-23.258l54.51,0c17.08,0 23.258,5.814 23.258,23.258l0,17.08l75.588,0l0,-32.343c0,-50.513 -23.621,-73.407 -73.407,-73.407l-108.294,0c-49.786,0 -73.407,22.894 -73.407,73.407l0,107.567c0,50.513 23.621,73.407 73.407,73.407l108.294,0Z" style="fill:#f57e25;fill-rule:nonzero;"/><rect x="4193.302" y="1592.821" width="79.949" height="254.382" style="fill:#f57e25;fill-rule:nonzero;"/><path d="M4441.143,1756.352l-62.505,-163.531l-85.763,0l107.931,254.382l76.315,0l107.931,-254.382l-81.766,0l-62.142,163.531Z" style="fill:#f57e25;fill-rule:nonzero;"/><rect x="4604.674" y="1592.821" width="79.949" height="254.382" style="fill:#f57e25;fill-rule:nonzero;"/><path d="M4799.458,1592.821l-78.495,0l0,254.382l204.959,0l0,-69.41l-126.464,0l0,-184.972Z" style="fill:#f57e25;fill-rule:nonzero;"/></g></svg>
